PathFileType	4	(X/Y/Z)	D:\TRACE\spot_10-12-23\spot_body_motion_1_5-platform.trc
DataRate	CameraRate	NumFrames	NumMarkers	Units	OrigDataRate	OrigDataStartFrame	OrigNumFrames
100.00	100.00	      36	5	mm	100.00	6126	      7000
Frame#	Time	Left_Front			Right_Front			Left_Aft			Right_Aft			Post			
		X1	Y1	Z1	X2	Y2	Z2	X3	Y3	Z3	X4	Y4	Z4	X5	Y5	Z5	

6126	61.250	-816.93616	30.41204	-635.30542	755.52631	34.93132	-628.53278	-733.77277	-11.31023	501.77747	683.73181	-10.03380	587.97540	-34.20916	779.26636	-926.53949	
6127	61.260	-817.84729	31.12127	-635.20013	754.84363	35.16374	-628.44342	-734.43854	-11.47255	501.89359	683.04895	-10.19867	588.06433	-34.65019	779.73840	-926.12360	
6128	61.270	-818.50446	31.47880	-635.15662	754.33032	35.36704	-628.34314	-735.25037	-11.74388	501.96127	682.13190	-10.54730	587.99890	-35.52341	780.31995	-925.55286	
6129	61.280	-819.24847	31.98205	-635.05981	753.58398	35.73880	-628.11456	-736.06708	-12.10565	501.96515	681.35297	-10.87722	588.10999	-36.37119	780.68011	-925.04608	
6130	61.290	-819.91492	32.22182	-634.90326	752.54852	36.15535	-628.03735	-736.56036	-12.33213	501.91901	680.70367	-11.15804	588.23743	-37.00601	781.20374	-924.71899	
6131	61.300	-820.66199	32.45210	-634.85999	752.06799	36.36407	-628.06989	-737.30701	-12.69076	501.98279	680.21832	-11.25643	588.24359	-37.39066	781.64569	-924.28271	
6132	61.310	-821.27502	32.65071	-634.98730	751.30298	36.73430	-628.04565	-738.07092	-12.87223	502.14609	679.33813	-11.50930	588.23810	-38.31026	782.24121	-923.60059	
6133	61.320	-822.17749	33.15307	-634.74225	750.95618	36.98863	-627.88971	-738.63507	-12.91188	502.24661	678.57568	-11.90671	588.34198	-38.94212	782.55011	-923.30347	
6134	61.330	-822.53027	33.30317	-634.58081	750.14813	37.36002	-627.77820	-739.36487	-13.11177	502.27390	678.06152	-12.13329	588.51471	-39.62822	782.85022	-922.78821	
6135	61.340	-823.27325	33.72091	-634.57184	749.31061	37.71387	-627.66058	-740.14026	-13.40051	502.33661	677.48108	-12.41971	588.56342	-40.17297	783.27454	-922.32654	
6136	61.350	-823.87793	34.14006	-634.40674	748.78351	37.98229	-627.65894	-740.50269	-13.52689	502.41501	676.90222	-12.60643	588.55151	-40.63902	783.75092	-921.90820	
6137	61.360	-824.32507	34.26442	-634.31915	748.25140	38.24221	-627.59814	-741.10852	-13.72842	502.63776	676.28052	-12.82938	588.59503	-41.35008	784.23431	-921.40302	
6138	61.370	-825.04785	34.62081	-634.21893	747.82416	38.44777	-627.37482	-741.58362	-13.99399	502.72827	675.51398	-13.11980	588.62170	-42.07586	784.66998	-921.00159	
6139	61.380	-825.58942	34.88633	-634.26837	747.33386	38.64761	-627.32629	-742.09473	-14.10805	502.81354	675.06421	-13.30265	588.69714	-42.44894	784.99805	-920.73407	
6140	61.390	-826.10583	34.95143	-634.25104	746.72723	38.93097	-627.21960	-742.60675	-14.25422	502.84692	674.58105	-13.53861	588.72491	-42.87098	785.32141	-920.40979	
6141	61.400	-826.50787	34.86699	-634.04999	746.08521	39.19287	-627.25879	-743.25262	-14.42668	502.90564	674.12305	-13.70111	588.80029	-43.47673	785.71179	-919.97272	
6142	61.410	-827.02893	35.25501	-633.89734	745.59241	39.39609	-627.04254	-743.78564	-14.75862	502.99191	673.73523	-13.90369	588.91327	-43.94817	786.05792	-919.71906	
6143	61.420	-827.43152	35.52955	-633.77454	745.13129	39.61354	-627.08466	-744.20813	-14.92122	503.13989	673.28149	-14.09327	588.90253	-44.39832	786.35614	-919.43433	
6144	61.430	-828.00891	35.87738	-633.79138	744.79974	39.78841	-627.06671	-744.61163	-15.04375	503.12485	672.73584	-14.32815	588.88678	-44.78828	786.64551	-919.17987	
6145	61.440	-828.47620	36.24192	-633.79730	744.45734	39.99799	-626.99750	-745.08710	-15.15176	502.96658	672.13715	-14.52246	588.91577	-45.46068	786.91772	-918.83020	
6146	61.450	-828.96552	36.62606	-633.74231	743.96002	40.23312	-626.97607	-745.46490	-15.32921	503.03360	671.70184	-14.73161	588.92841	-45.87666	787.18359	-918.50415	
6147	61.460	-829.21747	36.73386	-633.72424	743.54590	40.41348	-626.87122	-745.92322	-15.47345	503.06772	671.43085	-14.93891	589.03162	-46.17143	787.47089	-918.23779	
6148	61.470	-829.59869	36.94388	-633.68256	743.02539	40.68781	-626.93298	-746.24713	-15.56365	503.10657	671.19623	-15.10824	589.11536	-46.46672	787.82953	-917.99414	
6149	61.480	-829.82898	37.13451	-633.61041	742.62048	40.89921	-626.89392	-746.44250	-15.66549	503.15536	670.97998	-15.24018	589.17523	-46.74670	788.16156	-917.70288	
6150	61.490	-830.02313	37.24785	-633.52826	742.57721	41.02766	-626.75574	-746.58807	-15.73571	503.14618	670.78717	-15.32671	589.22241	-47.00024	788.43390	-917.37549	
6151	61.500	-830.18945	37.34560	-633.46747	742.33765	41.16917	-626.70428	-746.83002	-15.87264	503.13120	670.65778	-15.42000	589.24390	-47.13011	788.69757	-917.02576	
6152	61.510	-829.98657	37.31791	-633.62671	742.08411	41.35345	-626.67450	-747.02014	-15.95515	503.12173	670.49347	-15.52765	589.26147	-47.57421	789.05475	-916.85632	
6153	61.520	-830.22949	37.43093	-633.43640	741.96265	41.51724	-626.59052	-747.32599	-16.03290	503.07388	670.31396	-15.63740	589.24878	-47.68238	789.23212	-916.65106	
6154	61.530	-830.38873	37.52025	-633.39783	741.86127	41.62407	-626.62152	-747.44855	-16.18005	503.14383	670.10101	-15.80227	589.21362	-47.82332	789.43079	-916.52075	
6155	61.540	-830.58832	37.66716	-633.31830	741.81970	41.69488	-626.56458	-747.55695	-16.26567	503.16754	669.94012	-15.88694	589.24225	-47.82953	789.49689	-916.33545	
6156	61.550	-830.74084	37.83752	-633.27722	741.69794	41.84651	-626.59375	-747.62390	-16.38073	503.18671	669.86700	-15.95831	589.27167	-47.86245	789.60095	-916.15955	
6157	61.560	-830.85022	37.90505	-633.23907	741.65332	41.91764	-626.53845	-747.68018	-16.40636	503.20001	669.77155	-16.05410	589.27991	-47.93286	789.76190	-916.02533	
6158	61.570	-830.92316	38.01542	-633.16492	741.54669	42.04276	-626.56049	-747.63788	-16.50885	503.23956	669.67181	-16.14034	589.29480	-47.99497	789.84912	-915.97028	
6159	61.580	-830.92004	38.08357	-633.11664	741.56964	42.09582	-626.54156	-747.66229	-16.56013	503.25735	669.65948	-16.24415	589.35516	-48.02307	789.96466	-915.87292	
6160	61.590	-830.99457	38.32758	-633.05200	741.51746	42.17607	-626.54169	-747.68231	-16.52545	503.23993	669.63135	-16.33061	589.38684	-47.92855	789.98889	-915.78992	
6161	61.600	-830.99414	38.45128	-633.04865	741.52917	42.34660	-626.52325	-747.66504	-16.60849	503.34418	669.59894	-16.30563	589.43066	-48.00354	790.05334	-915.77429	
